<svg width="114" height="114" viewBox="0 0 114 114" fill="none" xmlns="http://www.w3.org/2000/svg">
<g filter="url(#filter0_b_2751_63036)">
<path d="M57 0.5C25.7959 0.5 0.5 25.7959 0.5 57C0.5 88.2041 25.7959 113.5 57 113.5C88.2041 113.5 113.5 88.2041 113.5 57C113.5 25.7959 88.2041 0.5 57 0.5Z" stroke="#A38BE9" stroke-opacity="0.125"/>
<circle opacity="0.7" cx="57" cy="57" r="56" fill="white"/>
<rect x="80" y="30" width="16" height="16" rx="4" fill="#6E41E2"/>
<path d="M88.8947 42L88.25 40.2107H84.75L84.1053 42H83L85.9013 34H87.1102L90 42H88.8947ZM87.9507 39.3564L86.5 35.2929L85.0493 39.3564H87.9507Z" fill="white"/>
<path d="M92 42V34H93V42H92Z" fill="white"/>
</g>
<path d="M49.972 56.1407C49.972 48.144 55.2563 43 62.1306 43C66.807 43 70.1741 45.3382 71.6705 48.0973V43.4209H75.9728V69.6087C75.9728 76.6701 71.2496 81.6739 63.7206 81.6739C56.9866 81.6739 52.1699 78.2601 51.3281 72.7887H55.5369C56.4722 75.8751 59.5119 77.9795 63.7206 77.9795C68.2567 77.9795 71.6705 75.0801 71.6705 69.6087V64.2309C70.1273 66.99 66.807 69.4685 62.1306 69.4685C55.2563 69.4685 49.972 64.0906 49.972 56.1407ZM71.6705 56.1875C71.6705 50.2484 67.6488 46.6944 62.9724 46.6944C58.296 46.6944 54.321 50.1081 54.321 56.1407C54.321 62.1733 58.296 65.7273 62.9724 65.7273C67.6488 65.7273 71.6705 62.22 71.6705 56.1875Z" fill="black"/>
<path d="M33.486 46.6008C29.324 46.6008 25.8635 49.3599 25.3958 54.3637H41.5762C41.6229 49.3599 37.8818 46.6008 33.486 46.6008ZM45.4576 61.1444C44.1482 65.8209 40.033 69.4685 33.6731 69.4685C26.3779 69.4685 21 64.3244 21 56.1875C21 48.0973 26.1908 43 33.6731 43C41.1085 43 45.972 48.2376 45.972 55.2522C45.972 56.1875 45.9252 56.9357 45.8317 57.8242H25.3491C25.6764 63.015 29.324 65.8676 33.6731 65.8676C37.5077 65.8676 39.9394 63.9035 40.8747 61.1444H45.4576Z" fill="black"/>
<defs>
<filter id="filter0_b_2751_63036" x="-12" y="-12" width="138" height="138" filterUnits="userSpaceOnUse" color-interpolation-filters="sRGB">
<feFlood flood-opacity="0" result="BackgroundImageFix"/>
<feGaussianBlur in="BackgroundImageFix" stdDeviation="6"/>
<feComposite in2="SourceAlpha" operator="in" result="effect1_backgroundBlur_2751_63036"/>
<feBlend mode="normal" in="SourceGraphic" in2="effect1_backgroundBlur_2751_63036" result="shape"/>
</filter>
</defs>
</svg>
