<svg width="19" height="18" viewBox="0 0 19 18" fill="none" xmlns="http://www.w3.org/2000/svg">
<path d="M12.989 2.5913L13.4756 2.10468C14.2819 1.29844 15.5891 1.29844 16.3953 2.10468C17.2016 2.91093 17.2016 4.21811 16.3953 5.02435L15.9087 5.51097M12.989 2.5913C12.989 2.5913 13.0499 3.62535 13.9623 4.53774C14.8747 5.45014 15.9087 5.51097 15.9087 5.51097M12.989 2.5913L8.51538 7.06495C8.21237 7.36796 8.06087 7.51946 7.93057 7.68651C7.77687 7.88357 7.6451 8.09679 7.53758 8.32239C7.44644 8.51363 7.37868 8.7169 7.24317 9.12343L6.80931 10.425M15.9087 5.51097L11.4351 9.98462C11.132 10.2876 10.9805 10.4391 10.8135 10.5694C10.6164 10.7231 10.4032 10.8549 10.1776 10.9624C9.98637 11.0536 9.7831 11.1213 9.37657 11.2568L8.075 11.6907M8.075 11.6907L7.23282 11.9714C7.03276 12.0381 6.8122 11.986 6.66308 11.8369C6.51397 11.6878 6.4619 11.4672 6.52859 11.2672L6.80931 10.425M8.075 11.6907L6.80931 10.425" stroke="white" stroke-width="1.5"/>
<path d="M17 9C17 13.1421 13.6421 16.5 9.5 16.5C5.35786 16.5 2 13.1421 2 9C2 4.85786 5.35786 1.5 9.5 1.5" stroke="white" stroke-width="1.5" stroke-linecap="round"/>
</svg>
