<svg width="20" height="20" viewBox="0 0 20 20" fill="none" xmlns="http://www.w3.org/2000/svg">
<g clip-path="url(#clip0_2751_65978)">
<path d="M11.1329 16.0985C10.8401 15.8057 10.3652 15.8057 10.0723 16.0985C9.77939 16.3914 9.77939 16.8663 10.0723 17.1592L11.1329 16.0985ZM15.4236 16.6289L15.9539 17.1592V17.1592L15.4236 16.6289ZM3.37113 4.57641L3.90146 5.10674L3.90146 5.10674L3.37113 4.57641ZM2.8408 9.92773C3.1337 10.2206 3.60857 10.2206 3.90146 9.92773C4.19436 9.63483 4.19436 9.15996 3.90146 8.86707L2.8408 9.92773ZM9.39737 3.37116L9.9277 3.90149C10.0684 3.76084 10.1474 3.57008 10.1474 3.37116C10.1474 3.17225 10.0684 2.98149 9.9277 2.84083L9.39737 3.37116ZM4.57638 3.37116L4.04605 2.84083L4.04605 2.84083L4.57638 3.37116ZM16.6288 10.6026L17.1592 10.0723C17.0185 9.93166 16.8278 9.85264 16.6288 9.85264C16.4299 9.85264 16.2392 9.93166 16.0985 10.0723L16.6288 10.6026ZM16.6288 15.4236L16.0985 14.8933L16.6288 15.4236ZM6.85829 4.84958C6.5654 5.14247 6.5654 5.61734 6.85829 5.91024C7.15119 6.20313 7.62606 6.20313 7.91895 5.91024L6.85829 4.84958ZM14.0898 12.0811C13.7969 12.374 13.7969 12.8488 14.0898 13.1417C14.3827 13.4346 14.8575 13.4346 15.1504 13.1417L14.0898 12.0811ZM4.04605 2.84083L2.8408 4.04608L3.90146 5.10674L5.10671 3.90149L4.04605 2.84083ZM15.9539 17.1592L17.1592 15.954L16.0985 14.8933L14.8933 16.0985L15.9539 17.1592ZM10.0723 17.1592C10.6255 17.7124 11.0925 18.1817 11.5143 18.5035C11.9533 18.8385 12.4302 19.0834 13.0131 19.0834V17.5834C12.89 17.5834 12.7298 17.5441 12.4242 17.311C12.1012 17.0646 11.7161 16.6817 11.1329 16.0985L10.0723 17.1592ZM14.8933 16.0985C14.3101 16.6817 13.925 17.0646 13.6021 17.311C13.2964 17.5441 13.1362 17.5834 13.0131 17.5834V19.0834C13.596 19.0834 14.0729 18.8385 14.5119 18.5035C14.9337 18.1817 15.4008 17.7124 15.9539 17.1592L14.8933 16.0985ZM2.8408 4.04608C2.28764 4.59925 1.81829 5.06635 1.49651 5.48808C1.16153 5.92713 0.916656 6.40398 0.916656 6.9869H2.41666C2.41666 6.86381 2.45586 6.70357 2.68904 6.39796C2.93543 6.07503 3.31831 5.68989 3.90146 5.10674L2.8408 4.04608ZM3.90146 8.86707C3.31831 8.28391 2.93543 7.89878 2.68904 7.57585C2.45586 7.27023 2.41666 7.10999 2.41666 6.9869H0.916656C0.916656 7.56983 1.16153 8.04668 1.49651 8.48572C1.81829 8.90746 2.28764 9.37456 2.8408 9.92773L3.90146 8.86707ZM9.9277 2.84083C9.37453 2.28767 8.90743 1.81832 8.48569 1.49654C8.04665 1.16156 7.5698 0.916687 6.98687 0.916687L6.98687 2.41669C7.10996 2.41669 7.27021 2.45589 7.57582 2.68907C7.89875 2.93546 8.28389 3.31834 8.86704 3.90149L9.9277 2.84083ZM5.10671 3.90149C5.68986 3.31834 6.075 2.93546 6.39793 2.68907C6.70354 2.45589 6.86378 2.41669 6.98687 2.41669L6.98687 0.916687C6.40395 0.916687 5.9271 1.16156 5.48805 1.49654C5.06632 1.81832 4.59922 2.28767 4.04605 2.84083L5.10671 3.90149ZM16.0985 11.133C16.6817 11.7161 17.0646 12.1013 17.3109 12.4242C17.5441 12.7298 17.5833 12.89 17.5833 13.0131H19.0833C19.0833 12.4302 18.8385 11.9534 18.5035 11.5143C18.1817 11.0926 17.7123 10.6255 17.1592 10.0723L16.0985 11.133ZM17.1592 15.954C17.7123 15.4008 18.1817 14.9337 18.5035 14.512C18.8385 14.0729 19.0833 13.5961 19.0833 13.0131H17.5833C17.5833 13.1362 17.5441 13.2965 17.3109 13.6021C17.0646 13.925 16.6817 14.3102 16.0985 14.8933L17.1592 15.954ZM8.86704 2.84083L6.85829 4.84958L7.91895 5.91024L9.9277 3.90149L8.86704 2.84083ZM16.0985 10.0723L14.0898 12.0811L15.1504 13.1417L17.1592 11.133L16.0985 10.0723Z" fill="#404B5A"/>
<path d="M11.9667 3.3989L12.7391 2.6265C14.0189 1.34675 16.0938 1.34675 17.3735 2.6265C18.6533 3.90626 18.6533 5.98115 17.3735 7.2609L16.6011 8.0333M11.9667 3.3989C11.9667 3.3989 12.0633 5.04025 13.5115 6.4885C14.9598 7.93675 16.6011 8.0333 16.6011 8.0333M11.9667 3.3989L4.86568 10.4999C4.38471 10.9809 4.14422 11.2214 3.9374 11.4865C3.69344 11.7993 3.48427 12.1378 3.31361 12.4959C3.16893 12.7994 3.06139 13.1221 2.84629 13.7674L2.15763 15.8334L1.93483 16.5018M16.6011 8.0333L9.50007 15.1343C9.01911 15.6153 8.77862 15.8558 8.51346 16.0626C8.20067 16.3066 7.86223 16.5157 7.50414 16.6864C7.20057 16.8311 6.87793 16.9386 6.23264 17.1537L4.16666 17.8424L3.49826 18.0652M3.49826 18.0652L2.82986 18.288C2.51231 18.3938 2.1622 18.3112 1.92552 18.0745C1.68883 17.8378 1.60618 17.4877 1.71203 17.1702L1.93483 16.5018M3.49826 18.0652L1.93483 16.5018" stroke="#404B5A" stroke-width="1.5"/>
</g>
<defs>
<clipPath id="clip0_2751_65978">
<rect width="20" height="20" rx="5" fill="white"/>
</clipPath>
</defs>
</svg>
