<svg width="20" height="20" viewBox="0 0 20 20" fill="none" xmlns="http://www.w3.org/2000/svg">
<g clip-path="url(#clip0_2751_63176)">
<path d="M1.66666 10C1.66666 6.07165 1.66666 4.10746 2.88704 2.88708C4.10743 1.66669 6.07162 1.66669 9.99999 1.66669C13.9284 1.66669 15.8925 1.66669 17.1129 2.88708C18.3333 4.10746 18.3333 6.07165 18.3333 10C18.3333 13.9284 18.3333 15.8926 17.1129 17.113C15.8925 18.3334 13.9284 18.3334 9.99999 18.3334C6.07162 18.3334 4.10743 18.3334 2.88704 17.113C1.66666 15.8926 1.66666 13.9284 1.66666 10Z" stroke="#404B5A" stroke-width="1.5" stroke-linecap="round"/>
<circle cx="13.3333" cy="6.66667" r="1.66667" stroke="#404B5A" stroke-width="1.5" stroke-linecap="round"/>
<path d="M1.66666 10.4168L3.12631 9.13957C3.8857 8.47511 5.03022 8.51322 5.74373 9.22673L9.3185 12.8015C9.89119 13.3742 10.7927 13.4523 11.4553 12.9866L11.7038 12.8119C12.6574 12.1418 13.9474 12.2195 14.8137 12.9991L17.5 15.4168" stroke="#404B5A" stroke-width="1.5" stroke-linecap="round"/>
</g>
<defs>
<clipPath id="clip0_2751_63176">
<rect width="20" height="20" fill="white"/>
</clipPath>
</defs>
</svg>
