<svg width="16" height="16" viewBox="0 0 16 16" fill="none" xmlns="http://www.w3.org/2000/svg">
<path fill-rule="evenodd" clip-rule="evenodd" d="M10.0785 6.13932L8.46358 2.14618C8.29506 1.72946 7.70505 1.72945 7.53652 2.14618L5.92165 6.13932L1.62492 6.44121C1.17652 6.47271 0.994193 7.03384 1.33844 7.3229L4.63712 10.0927L3.59647 14.2724C3.48787 14.7086 3.9652 15.0554 4.34648 14.8173L8.00005 12.536L11.6536 14.8173C12.0349 15.0554 12.5122 14.7086 12.4036 14.2724L11.363 10.0927L14.6617 7.3229C15.0059 7.03384 14.8236 6.47271 14.3752 6.44121L10.0785 6.13932ZM13.0718 7.3521L9.3855 7.09309L8.00005 3.66727L6.6146 7.09309L2.92833 7.3521L5.75835 9.72837L4.86555 13.3143L8.00005 11.3571L11.1346 13.3143L10.2418 9.72837L13.0718 7.3521Z" fill="#0F0E11"/>
</svg>
