<svg width="20" height="20" viewBox="0 0 20 20" fill="none" xmlns="http://www.w3.org/2000/svg">
<path d="M14.1667 7.91666L14.7153 7.64235C16.3369 6.83156 17.1477 6.42617 17.7405 6.79256C18.3333 7.15895 18.3333 8.06544 18.3333 9.87842V10.1216C18.3333 11.9346 18.3333 12.841 17.7405 13.2074C17.1477 13.5738 16.3369 13.1684 14.7153 12.3576L14.1667 12.0833V7.91666Z" stroke="#404B5A" stroke-width="1.5"/>
<path d="M11.3005 6.19943C11.7887 6.68758 11.7887 7.47904 11.3005 7.9672C10.8124 8.45535 10.0209 8.45535 9.53277 7.9672C9.04462 7.47904 9.04462 6.68758 9.53277 6.19943C10.0209 5.71127 10.8124 5.71127 11.3005 6.19943Z" stroke="#404B5A" stroke-width="1.5"/>
<path d="M1.66666 9.58331C1.66666 6.84374 1.66666 5.47396 2.42329 4.552C2.5618 4.38322 2.71657 4.22846 2.88535 4.08994C3.8073 3.33331 5.17709 3.33331 7.91666 3.33331C10.6562 3.33331 12.026 3.33331 12.948 4.08994C13.1167 4.22846 13.2715 4.38322 13.41 4.552C14.1667 5.47396 14.1667 6.84374 14.1667 9.58331V10.4166C14.1667 13.1562 14.1667 14.526 13.41 15.448C13.2715 15.6167 13.1167 15.7715 12.948 15.91C12.026 16.6666 10.6562 16.6666 7.91666 16.6666C5.17709 16.6666 3.8073 16.6666 2.88535 15.91C2.71657 15.7715 2.5618 15.6167 2.42329 15.448C1.66666 14.526 1.66666 13.1562 1.66666 10.4166V9.58331Z" stroke="#404B5A" stroke-width="1.5"/>
</svg>
